<svg width="20" height="20" viewBox="0 0 20 20" fill="none" xmlns="http://www.w3.org/2000/svg">
<path d="M18.3333 6.89196V3.52529C18.3333 2.20029 17.8 1.66696 16.475 1.66696H13.1083C11.7833 1.66696 11.25 2.20029 11.25 3.52529V6.89196C11.25 8.21696 11.7833 8.75029 13.1083 8.75029H16.475C17.8 8.75029 18.3333 8.21696 18.3333 6.89196Z" stroke="#697077" stroke-width="1.5" stroke-linecap="round" stroke-linejoin="round"/>
<path d="M8.7513 7.1003V3.31696C8.7513 2.14196 8.21797 1.66696 6.89297 1.66696H3.5263C2.2013 1.66696 1.66797 2.14196 1.66797 3.31696V7.09196C1.66797 8.2753 2.2013 8.74196 3.5263 8.74196H6.89297C8.21797 8.75029 8.7513 8.2753 8.7513 7.1003Z" stroke="#697077" stroke-width="1.5" stroke-linecap="round" stroke-linejoin="round"/>
<path d="M8.7513 16.4752V13.1086C8.7513 11.7836 8.21797 11.2502 6.89297 11.2502H3.5263C2.2013 11.2502 1.66797 11.7836 1.66797 13.1086V16.4752C1.66797 17.8002 2.2013 18.3336 3.5263 18.3336H6.89297C8.21797 18.3336 8.7513 17.8002 8.7513 16.4752Z" stroke="#697077" stroke-width="1.5" stroke-linecap="round" stroke-linejoin="round"/>
<path d="M12.082 14.5835H17.082" stroke="#697077" stroke-width="1.5" stroke-linecap="round"/>
<path d="M14.582 17.0835V12.0835" stroke="#697077" stroke-width="1.5" stroke-linecap="round"/>
</svg>
