<svg width="20" height="20" viewBox="0 0 20 20" fill="none" xmlns="http://www.w3.org/2000/svg">
<path d="M12.9842 10.0002C12.9842 11.6502 11.6509 12.9836 10.0009 12.9836C8.35091 12.9836 7.01758 11.6502 7.01758 10.0002C7.01758 8.35024 8.35091 7.01691 10.0009 7.01691C11.6509 7.01691 12.9842 8.35024 12.9842 10.0002Z" stroke="#697077" stroke-width="1.5" stroke-linecap="round" stroke-linejoin="round"/>
<path d="M9.99987 16.8919C12.9415 16.8919 15.6832 15.1586 17.5915 12.1586C18.3415 10.9836 18.3415 9.00858 17.5915 7.83358C15.6832 4.83358 12.9415 3.10025 9.99987 3.10025C7.0582 3.10025 4.31654 4.83358 2.4082 7.83358C1.6582 9.00858 1.6582 10.9836 2.4082 12.1586C4.31654 15.1586 7.0582 16.8919 9.99987 16.8919Z" stroke="#697077" stroke-width="1.5" stroke-linecap="round" stroke-linejoin="round"/>
</svg>
