<svg width="20" height="20" viewBox="0 0 20 20" fill="none" xmlns="http://www.w3.org/2000/svg">
<path d="M8.60997 13.8277H3.35938" stroke="#697077" stroke-width="1.5" stroke-linecap="round" stroke-linejoin="round"/>
<path d="M10.9512 5.75056H16.2018" stroke="#697077" stroke-width="1.5" stroke-linecap="round" stroke-linejoin="round"/>
<path fill-rule="evenodd" clip-rule="evenodd" d="M7.27256 5.70546C7.27256 4.62574 6.39076 3.75024 5.30327 3.75024C4.21578 3.75024 3.33398 4.62574 3.33398 5.70546C3.33398 6.78517 4.21578 7.66067 5.30327 7.66067C6.39076 7.66067 7.27256 6.78517 7.27256 5.70546Z" stroke="#697077" stroke-width="1.5" stroke-linecap="round" stroke-linejoin="round"/>
<path fill-rule="evenodd" clip-rule="evenodd" d="M16.6671 13.795C16.6671 12.7153 15.786 11.8398 14.6985 11.8398C13.6103 11.8398 12.7285 12.7153 12.7285 13.795C12.7285 14.8747 13.6103 15.7502 14.6985 15.7502C15.786 15.7502 16.6671 14.8747 16.6671 13.795Z" stroke="#697077" stroke-width="1.5" stroke-linecap="round" stroke-linejoin="round"/>
</svg>
