<svg width="18" height="20" viewBox="0 0 18 20" fill="none" xmlns="http://www.w3.org/2000/svg">
<path d="M6.63166 17.3095V14.7539C6.63165 14.1039 7.16158 13.5757 7.81816 13.5713H10.2232C10.8829 13.5713 11.4177 14.1008 11.4177 14.7539V14.7539V17.3174C11.4176 17.8693 11.8625 18.3204 12.4198 18.3333H14.0232C15.6216 18.3333 16.9173 17.0506 16.9173 15.4682V15.4682V8.19819C16.9088 7.57568 16.6135 6.99111 16.1156 6.61085L10.6321 2.23774C9.67143 1.4763 8.30582 1.4763 7.34516 2.23774L1.88567 6.61879C1.38587 6.99751 1.09014 7.58305 1.08398 8.20612V15.4682C1.08398 17.0506 2.37971 18.3333 3.97808 18.3333H5.58145C6.15261 18.3333 6.61563 17.8749 6.61563 17.3095V17.3095" stroke="#181A1B" stroke-width="1.5" stroke-linecap="round" stroke-linejoin="round"/>
</svg>
