<svg width="20" height="20" viewBox="0 0 20 20" fill="none" xmlns="http://www.w3.org/2000/svg">
<path d="M10.0175 2.42499C7.25914 2.42499 5.01747 4.66665 5.01747 7.42499V9.83332C5.01747 10.3417 4.80081 11.1167 4.54247 11.55L3.58414 13.1417C2.99247 14.125 3.40081 15.2167 4.48414 15.5833C8.07581 16.7833 11.9508 16.7833 15.5425 15.5833C16.5508 15.25 16.9925 14.0583 16.4425 13.1417L15.4841 11.55C15.2341 11.1167 15.0175 10.3417 15.0175 9.83332V7.42499C15.0175 4.67499 12.7675 2.42499 10.0175 2.42499Z" stroke="#181A1B" stroke-width="1.5" stroke-miterlimit="10" stroke-linecap="round"/>
<path d="M11.5589 2.66667C11.3006 2.59167 11.0339 2.53334 10.7589 2.5C9.95892 2.4 9.19225 2.45834 8.47559 2.66667C8.71725 2.05 9.31725 1.61667 10.0173 1.61667C10.7173 1.61667 11.3173 2.05 11.5589 2.66667Z" stroke="#181A1B" stroke-width="1.5" stroke-miterlimit="10" stroke-linecap="round" stroke-linejoin="round"/>
<path d="M12.5176 15.8833C12.5176 17.2583 11.3926 18.3833 10.0176 18.3833C9.33424 18.3833 8.70091 18.1 8.25091 17.65C7.80091 17.2 7.51758 16.5667 7.51758 15.8833" stroke="#181A1B" stroke-width="1.5" stroke-miterlimit="10"/>
</svg>
