<svg width="20" height="20" viewBox="0 0 20 20" fill="none" xmlns="http://www.w3.org/2000/svg">
<path d="M10.1322 9.05863C10.0488 9.0503 9.94883 9.0503 9.85716 9.05863C7.87383 8.99196 6.29883 7.36696 6.29883 5.36696C6.29883 3.3253 7.94883 1.66696 9.99883 1.66696C12.0405 1.66696 13.6988 3.3253 13.6988 5.36696C13.6905 7.36696 12.1155 8.99196 10.1322 9.05863Z" stroke="#697077" stroke-width="1.5" stroke-linecap="round" stroke-linejoin="round"/>
<path d="M5.96758 12.1335C3.95091 13.4835 3.95091 15.6835 5.96758 17.0252C8.25925 18.5585 12.0176 18.5585 14.3092 17.0252C16.3259 15.6752 16.3259 13.4752 14.3092 12.1335C12.0259 10.6085 8.26758 10.6085 5.96758 12.1335Z" stroke="#697077" stroke-width="1.5" stroke-linecap="round" stroke-linejoin="round"/>
</svg>
