<svg width="20" height="20" viewBox="0 0 20 20" fill="none" xmlns="http://www.w3.org/2000/svg">
<path d="M7.63216 9.05863C7.54883 9.0503 7.44883 9.0503 7.35716 9.05863C5.37383 8.99196 3.79883 7.36696 3.79883 5.36696C3.79883 3.3253 5.44883 1.66696 7.49883 1.66696C9.5405 1.66696 11.1988 3.3253 11.1988 5.36696C11.1905 7.36696 9.6155 8.99196 7.63216 9.05863Z" stroke="#697077" stroke-width="1.5" stroke-linecap="round" stroke-linejoin="round"/>
<path d="M13.6728 3.33353C15.2895 3.33353 16.5895 4.64186 16.5895 6.25019C16.5895 7.82519 15.3395 9.10853 13.7811 9.16686C13.7145 9.15853 13.6395 9.15853 13.5645 9.16686" stroke="#697077" stroke-width="1.5" stroke-linecap="round" stroke-linejoin="round"/>
<path d="M3.46758 12.1335C1.45091 13.4835 1.45091 15.6835 3.46758 17.0252C5.75925 18.5585 9.51758 18.5585 11.8092 17.0252C13.8259 15.6752 13.8259 13.4752 11.8092 12.1335C9.52591 10.6085 5.76758 10.6085 3.46758 12.1335Z" stroke="#697077" stroke-width="1.5" stroke-linecap="round" stroke-linejoin="round"/>
<path d="M15.2832 16.667C15.8832 16.542 16.4499 16.3003 16.9165 15.942C18.2165 14.967 18.2165 13.3586 16.9165 12.3836C16.4582 12.0336 15.8999 11.8003 15.3082 11.667" stroke="#697077" stroke-width="1.5" stroke-linecap="round" stroke-linejoin="round"/>
</svg>
