<svg width="20" height="20" viewBox="0 0 20 20" fill="none" xmlns="http://www.w3.org/2000/svg">
<path d="M11.444 2.92535L12.9107 5.85868C13.1107 6.26702 13.644 6.65868 14.094 6.73368L16.7524 7.17535C18.4524 7.45868 18.8524 8.69202 17.6274 9.90868L15.5607 11.9753C15.2107 12.3253 15.019 13.0003 15.1274 13.4837L15.719 16.042C16.1857 18.067 15.1107 18.8504 13.319 17.792L10.8274 16.317C10.3774 16.0504 9.6357 16.0504 9.17737 16.317L6.6857 17.792C4.90237 18.8504 3.81903 18.0587 4.2857 16.042L4.87737 13.4837C4.9857 13.0003 4.79403 12.3253 4.44403 11.9753L2.37737 9.90868C1.1607 8.69202 1.55237 7.45868 3.25237 7.17535L5.9107 6.73368C6.35237 6.65868 6.8857 6.26702 7.0857 5.85868L8.55237 2.92535C9.35237 1.33368 10.6524 1.33368 11.444 2.92535Z" stroke="#838A91" stroke-width="1.53011" stroke-linecap="round" stroke-linejoin="round"/>
</svg>
