<svg width="20" height="20" viewBox="0 0 20 20" fill="none" xmlns="http://www.w3.org/2000/svg">
<path d="M9.54967 11.4419C10.8429 11.4419 11.8913 10.3935 11.8913 9.10024C11.8913 7.80697 10.8429 6.75858 9.54967 6.75858C8.25641 6.75858 7.20801 7.80697 7.20801 9.10024C7.20801 10.3935 8.25641 11.4419 9.54967 11.4419Z" stroke="#838A91" stroke-width="1.5" stroke-linecap="round" stroke-linejoin="round"/>
<path d="M13.8746 16.8336C13.8746 14.8919 11.9413 13.3086 9.54961 13.3086C7.15794 13.3086 5.22461 14.8836 5.22461 16.8336" stroke="#838A91" stroke-width="1.5" stroke-linecap="round" stroke-linejoin="round"/>
<path d="M17.5003 10.4169C17.5003 14.7919 13.9587 18.3336 9.58366 18.3336C5.20866 18.3336 1.66699 14.7919 1.66699 10.4169C1.66699 6.04191 5.20866 2.50024 9.58366 2.50024C10.6753 2.50024 11.717 2.7169 12.667 3.1169C12.5587 3.45024 12.5003 3.80024 12.5003 4.16691C12.5003 4.79191 12.6753 5.38358 12.9837 5.88358C13.1503 6.16691 13.367 6.42522 13.617 6.64189C14.2003 7.17522 14.9753 7.50025 15.8337 7.50025C16.2003 7.50025 16.5503 7.44189 16.8753 7.32523C17.2753 8.27523 17.5003 9.32525 17.5003 10.4169Z" stroke="#838A91" stroke-width="1.5" stroke-linecap="round" stroke-linejoin="round"/>
<path d="M20.0002 4.09115C20.0002 4.41843 19.9593 4.73546 19.8774 5.04228C19.7854 5.45137 19.6218 5.85024 19.407 6.19797C18.9161 7.02638 18.1286 7.67068 17.1877 7.96727C16.7888 8.11045 16.3593 8.18206 15.9093 8.18206C14.8559 8.18206 13.9047 7.78317 13.1888 7.12862C12.882 6.86271 12.6161 6.5457 12.4115 6.19797C12.0331 5.58433 11.8184 4.8582 11.8184 4.09115C11.8184 3.64115 11.89 3.2116 12.0229 2.80251C12.2172 2.20933 12.5445 1.67754 12.974 1.23777C13.7206 0.470721 14.7638 0.000244141 15.9093 0.000244141C17.1161 0.000244141 18.2104 0.521853 18.9468 1.36049C19.6013 2.08663 20.0002 3.04797 20.0002 4.09115Z" fill="#F7F7F8"/>
<path d="M17.8779 4.13129H13.7881" stroke="#838A91" stroke-miterlimit="10" stroke-linecap="round" stroke-linejoin="round"/>
<path d="M15.832 2.12766V6.23118" stroke="#838A91" stroke-miterlimit="10" stroke-linecap="round" stroke-linejoin="round"/>
</svg>
